P3
# Created by IrfanView
50 16
255
64 70 86 64 70 86 64 70 86 64 70 86 64 70 86 
64 70 86 64 70 86 63 70 87 63 71 85 65 69 89 
64 70 85 63 70 83 65 70 84 65 68 89 63 70 84 
65 69 89 63 70 88 66 68 88 64 70 87 63 71 83 
63 70 85 65 69 88 67 69 84 63 71 84 65 71 75 
131 138 100 69 71 70 65 69 88 62 70 83 64 69 86 
80 84 74 66 72 79 63 70 89 69 69 77 66 71 77 
63 70 87 64 70 82 65 70 84 64 70 86 64 70 87 
64 70 86 64 70 86 64 70 86 64 70 86 64 70 86 
64 70 86 64 70 86 64 70 86 64 70 86 64 70 86 
64 70 86 64 70 86 64 70 86 64 70 86 64 70 86 
64 70 86 64 70 86 62 70 87 66 69 83 67 69 81 
61 70 90 63 69 86 74 75 76 65 70 79 63 69 88 
66 69 84 65 69 86 63 69 84 65 69 82 65 68 91 
65 69 81 67 70 75 63 70 83 63 71 91 85 88 71 
147 145 84 107 101 83 66 68 87 61 71 83 70 75 66 
160 167 106 77 85 66 63 70 73 113 116 81 80 84 67 
64 69 86 64 69 86 64 69 88 64 70 85 64 70 86 
64 70 86 64 70 86 64 70 86 64 70 86 64 70 86 
64 70 86 64 70 86 64 70 86 64 70 86 64 70 86 
64 70 86 64 70 86 64 70 86 64 70 86 64 70 86 
64 70 86 64 70 86 64 69 85 70 71 79 105 109 84 
67 73 70 66 69 80 110 115 90 82 88 69 64 69 95 
66 69 82 73 75 76 63 70 80 64 68 86 62 70 87 
76 81 62 103 105 77 63 70 68 60 72 80 94 104 73 
123 129 72 138 143 109 64 70 75 63 70 82 112 114 82 
182 184 114 110 114 88 87 92 75 148 147 94 95 92 81 
66 70 80 63 69 84 63 69 88 64 70 83 64 70 85 
64 69 88 64 70 86 64 70 86 64 70 86 64 70 86 
64 70 86 64 70 86 64 70 86 64 70 86 64 70 86 
64 70 86 64 70 86 64 70 86 64 70 86 63 70 87 
63 70 84 64 69 87 62 70 87 66 70 74 161 165 101 
165 167 115 87 90 74 122 125 89 111 121 77 58 73 63 
70 81 51 150 156 108 69 85 38 67 89 39 66 94 38 
81 98 34 184 186 123 128 135 75 71 90 34 71 97 28 
72 98 22 75 101 28 67 88 36 70 83 39 149 153 87 
175 174 100 150 155 104 100 112 54 140 143 75 109 106 81 
104 107 87 64 72 73 63 70 89 64 70 83 64 69 85 
64 69 86 63 70 87 62 70 86 63 70 85 64 70 86 
65 69 85 64 70 86 64 70 86 64 70 86 64 70 86 
64 70 86 64 70 86 64 70 86 64 70 86 64 68 90 
64 70 83 64 69 90 65 69 85 64 67 94 123 129 84 
165 167 94 191 193 125 151 153 90 75 96 27 75 109 34 
105 124 49 175 177 108 131 141 69 92 120 33 88 123 29 
93 112 30 164 165 94 192 192 126 157 166 96 92 113 31 
91 120 31 87 120 30 90 118 34 92 110 31 164 170 94 
169 171 94 179 185 115 82 106 26 77 100 34 159 159 97 
148 150 90 62 72 49 61 72 74 65 71 86 63 69 92 
62 70 82 66 71 76 65 71 77 63 70 84 64 70 85 
64 69 87 64 70 86 64 70 86 64 70 86 64 70 86 
64 70 86 64 70 86 64 70 86 64 70 85 69 74 69 
69 69 78 65 69 88 63 71 81 63 71 71 76 87 43 
160 163 88 164 164 86 177 184 102 114 141 53 93 130 38 
105 129 45 159 164 93 178 184 114 90 118 31 99 132 32 
104 126 36 149 157 78 163 160 85 190 187 116 174 181 111 
93 115 35 87 120 35 94 127 36 131 154 68 150 162 79 
164 171 92 178 189 113 89 107 33 164 174 106 177 179 106 
139 147 71 91 115 37 73 100 34 63 80 50 61 71 60 
89 97 67 143 146 102 94 98 67 67 70 75 65 70 83 
64 70 83 64 70 86 64 70 86 64 70 86 64 70 86 
64 70 86 64 70 85 64 69 86 64 70 82 93 96 82 
127 132 88 85 94 75 76 86 56 114 124 68 96 116 48 
133 156 69 129 148 61 112 136 47 105 136 41 104 137 39 
115 144 47 121 146 52 118 139 48 106 139 41 108 138 39 
110 139 44 121 139 57 156 160 85 164 163 84 177 181 106 
126 143 62 100 134 40 99 136 38 105 142 40 104 134 41 
102 127 41 86 110 24 160 175 96 180 181 110 155 158 85 
123 138 56 97 131 35 94 132 34 105 133 42 130 142 72 
163 167 93 175 177 113 132 133 82 122 124 95 66 71 74 
64 69 86 63 69 87 63 69 86 64 69 86 64 69 86 
65 69 84 63 69 87 64 69 91 65 69 85 66 70 74 
101 117 60 86 113 34 110 127 53 177 184 109 138 149 72 
118 146 52 111 144 44 106 141 38 108 143 38 108 142 38 
106 139 38 106 139 38 106 139 39 110 143 41 112 146 43 
110 142 47 106 137 48 133 158 70 123 144 58 115 137 47 
112 139 42 107 142 39 106 142 36 104 142 37 103 140 39 
103 138 39 106 140 41 126 148 58 150 156 76 153 166 84 
99 125 33 99 135 34 96 134 34 103 135 36 146 159 77 
188 188 118 114 125 56 87 105 42 73 82 66 61 71 86 
62 71 85 64 70 81 62 71 84 64 70 88 64 70 87 
63 69 85 67 73 77 107 111 92 109 112 81 107 119 70 
105 134 47 108 141 42 107 132 43 156 158 89 187 183 113 
141 157 73 97 127 34 98 133 37 93 128 31 90 124 34 
89 123 35 88 122 30 87 122 24 88 124 22 91 126 26 
94 128 36 105 137 44 113 145 45 111 142 48 112 146 39 
110 146 37 111 148 39 111 145 38 109 145 38 107 144 38 
106 144 37 104 143 35 103 138 37 104 129 39 112 141 48 
99 136 40 97 131 40 98 133 33 98 135 36 108 134 43 
132 147 67 99 126 37 98 129 46 77 90 49 103 106 76 
121 122 88 125 128 91 67 74 74 62 71 83 64 70 84 
63 70 86 64 70 79 95 101 76 164 171 108 148 165 80 
109 139 38 108 141 35 105 136 39 136 156 70 142 153 76 
122 142 56 100 129 38 92 126 33 93 126 33 90 127 26 
108 146 40 128 167 55 131 170 57 118 157 51 101 137 41 
88 124 31 88 124 31 87 123 28 88 124 27 91 127 26 
99 134 33 101 136 36 101 136 35 99 135 35 97 133 34 
92 128 30 90 126 29 87 123 31 88 122 35 90 124 32 
95 133 30 92 130 25 88 124 26 89 124 30 92 127 28 
94 127 33 98 134 38 104 140 39 142 160 78 162 165 82 
184 185 126 97 96 79 64 70 83 62 69 92 64 69 86 
65 70 81 64 69 92 62 72 73 77 95 38 108 132 50 
108 140 42 106 142 38 107 144 40 114 149 50 99 131 36 
95 130 33 93 129 33 93 128 33 90 125 29 110 146 45 
118 154 43 112 145 43 109 133 39 99 134 35 92 129 36 
85 123 35 83 121 29 87 125 32 89 124 33 89 123 34 
88 122 31 88 123 29 89 122 31 88 122 31 88 123 32 
90 124 33 90 123 34 87 122 30 93 129 40 116 154 48 
130 164 54 132 175 58 115 154 49 91 125 33 90 126 32 
91 128 33 96 131 37 100 132 41 136 154 76 179 183 118 
89 92 78 64 69 86 61 70 86 63 71 85 64 70 86 
66 69 83 64 69 87 62 70 84 56 72 55 70 97 26 
92 125 32 103 138 37 104 139 42 102 138 40 95 131 34 
95 131 34 95 131 33 93 128 33 104 139 45 145 175 74 
190 213 85 150 149 68 92 64 23 152 172 68 129 155 45 
97 131 29 80 116 27 80 117 32 85 125 28 87 124 30 
89 124 31 88 123 32 88 123 31 87 125 29 86 126 29 
86 125 33 84 122 31 80 117 27 82 117 23 99 133 30 
94 101 29 111 133 39 131 162 43 108 137 42 90 124 36 
92 127 35 95 130 36 97 131 35 97 124 38 73 89 42 
61 72 74 63 70 85 64 69 87 63 70 87 64 70 86 
66 69 85 64 69 90 60 70 78 53 70 52 54 78 28 
68 92 33 74 100 24 79 109 26 83 113 29 84 115 34 
90 123 32 92 127 33 91 127 32 93 129 36 111 141 55 
178 199 90 186 176 91 120 76 34 228 237 113 218 237 102 
202 223 95 168 195 72 116 147 37 84 117 21 90 124 32 
89 124 32 88 123 33 88 123 31 89 124 29 88 125 29 
84 123 31 81 120 22 114 146 43 165 190 71 202 218 107 
127 96 47 172 157 78 205 220 107 115 144 55 85 117 31 
90 120 35 88 118 32 79 111 26 62 89 30 52 71 57 
62 72 84 64 70 86 65 69 85 64 70 84 64 70 86 
65 69 86 64 69 85 61 69 77 60 71 70 59 70 69 
60 72 68 59 71 66 55 71 61 55 71 60 55 74 51 
54 79 25 76 107 32 84 117 35 80 113 33 88 122 43 
89 127 42 114 138 63 144 145 75 213 229 116 213 236 114 
213 231 114 190 211 105 151 173 83 87 113 40 80 111 30 
87 120 33 89 122 31 90 124 34 84 121 30 85 119 34 
86 113 29 172 198 89 218 243 118 225 247 116 224 245 116 
161 150 74 151 164 84 103 135 50 87 117 40 60 85 27 
58 78 42 56 75 51 58 75 49 57 75 48 54 70 53 
59 67 65 64 70 84 63 70 86 64 69 86 64 70 86 
64 70 85 64 70 86 63 69 86 63 69 87 63 69 88 
64 70 88 64 70 88 61 70 87 59 71 81 52 67 56 
57 75 44 59 80 41 57 77 44 56 75 52 53 74 54 
62 89 53 72 99 49 71 97 33 65 94 33 65 93 39 
61 87 35 61 79 40 58 74 50 55 73 49 58 78 45 
58 80 39 61 84 33 65 89 32 61 84 35 55 74 47 
56 71 50 64 79 42 87 106 48 112 133 57 112 135 52 
91 115 43 75 106 40 67 97 42 58 83 33 56 77 35 
53 69 48 61 73 80 63 70 87 62 70 84 64 70 84 
65 69 86 64 70 86 64 70 86 64 70 86 64 70 86 
64 70 86 64 70 86 64 70 86 64 70 86 64 70 86 
64 70 86 64 70 86 63 70 84 62 71 83 62 71 84 
62 70 85 63 71 86 62 71 84 62 70 82 62 70 86 
64 69 87 64 71 78 62 72 72 61 71 76 61 71 81 
62 70 82 62 71 87 62 71 86 62 70 87 62 70 87 
62 70 84 62 71 80 62 71 76 62 70 78 63 69 88 
62 69 91 61 71 82 62 72 79 61 73 67 62 75 67 
62 71 69 64 70 71 65 70 79 63 71 83 63 72 81 
62 70 79 63 71 84 63 70 86 63 70 86 64 69 86 
64 69 87 64 70 86 64 70 86 64 70 86 64 70 86 
