P3
# Created by IrfanView
80 45
255
255 254 201 255 253 203 255 255 202 255 255 202 255 255 202 
255 255 202 255 255 202 255 255 202 255 252 200 255 251 198 
255 250 197 255 249 196 255 251 198 255 251 198 255 249 196 
255 248 195 255 248 195 255 248 195 255 249 196 255 249 196 
255 248 195 255 249 196 255 248 195 255 250 197 255 251 198 
255 250 197 255 249 196 255 249 196 255 249 196 255 251 198 
255 254 201 255 255 202 255 255 202 255 254 201 255 253 200 
255 251 198 255 249 197 255 249 196 255 251 201 255 254 203 
255 254 202 255 254 205 255 254 207 255 255 212 255 255 218 
255 254 235 255 253 239 255 255 223 255 255 214 255 255 212 
255 255 211 255 255 209 255 255 209 255 255 209 255 255 207 
255 255 207 255 255 207 255 255 207 255 255 207 255 255 207 
255 255 207 255 255 207 255 255 207 255 255 207 255 255 207 
255 255 207 255 255 207 255 255 205 255 255 207 255 255 209 
255 255 207 255 255 207 255 255 205 255 255 205 255 254 207 
255 255 205 255 255 205 255 255 205 255 255 205 255 255 205 
255 255 202 255 255 202 255 255 202 255 255 202 255 255 202 
255 255 202 255 255 202 255 255 202 255 255 202 255 255 202 
255 254 199 255 253 200 255 252 199 255 251 198 255 250 197 
255 249 196 255 249 196 255 250 195 255 253 200 255 254 201 
255 253 200 255 253 200 255 251 198 255 252 197 255 252 197 
255 251 198 255 250 197 255 250 197 255 250 195 255 252 197 
255 254 201 255 254 201 255 255 202 255 255 202 255 254 201 
255 252 197 255 250 197 255 252 197 255 254 204 255 254 205 
255 255 202 255 254 204 255 254 207 255 254 211 255 255 212 
255 255 213 255 255 216 255 255 214 255 255 212 255 255 212 
255 255 211 255 255 209 255 255 209 255 255 207 255 255 207 
255 255 207 255 255 207 255 255 207 255 255 207 255 255 207 
255 255 207 255 255 207 255 255 207 255 255 207 255 255 207 
255 255 207 255 255 207 255 255 207 255 255 207 255 255 207 
255 255 207 255 255 207 255 255 205 255 255 205 255 255 207 
255 255 205 255 255 205 255 255 205 255 255 205 255 255 205 
255 255 204 255 255 202 255 254 204 255 255 202 255 255 202 
255 255 202 255 255 202 255 255 202 255 255 202 255 255 202 
255 255 202 255 254 201 255 252 200 255 252 199 255 251 198 
255 251 198 255 250 197 255 252 199 255 253 200 255 255 202 
255 255 202 255 255 202 255 255 200 255 253 198 255 252 197 
255 253 198 255 252 199 255 251 198 255 251 196 255 254 201 
255 255 202 255 254 201 255 255 202 255 255 202 255 255 202 
255 255 202 255 254 201 255 255 202 255 254 205 255 254 205 
255 254 204 255 254 204 255 254 205 255 254 207 255 254 211 
255 255 212 255 255 212 255 255 212 255 255 212 255 255 211 
255 255 211 255 255 209 255 255 209 255 255 209 255 255 209 
255 255 209 255 255 209 255 255 209 255 255 207 255 255 207 
255 255 209 255 255 207 255 255 209 255 255 207 255 255 207 
255 255 209 255 255 207 255 255 207 255 255 209 255 255 207 
255 255 207 255 255 207 255 255 207 255 255 207 255 255 207 
255 255 207 255 255 207 255 255 207 255 255 207 255 255 209 
255 255 205 255 255 204 255 255 204 255 255 204 255 255 204 
255 255 205 255 255 204 255 255 204 255 255 202 255 255 205 
255 254 201 255 254 201 255 254 201 255 255 204 255 255 202 
255 250 200 255 251 200 255 252 199 255 252 199 255 255 202 
255 255 202 255 255 202 255 255 202 255 254 201 255 254 201 
255 255 202 255 255 202 255 254 201 255 254 199 255 254 199 
255 255 202 255 255 202 255 255 200 255 255 202 255 255 202 
255 255 202 255 255 204 255 254 204 255 254 205 255 254 205 
255 255 205 255 255 205 255 255 205 255 254 205 255 254 207 
255 254 209 255 255 211 255 255 211 255 255 211 255 255 211 
255 255 211 255 255 211 255 255 209 255 255 209 255 255 209 
255 255 209 255 255 207 255 255 209 255 255 207 255 255 209 
255 255 209 255 255 209 255 255 209 255 255 209 255 255 209 
255 255 209 255 255 209 255 255 209 255 255 209 255 255 207 
255 255 207 255 255 207 255 255 207 255 255 209 255 255 209 
255 255 209 255 255 209 255 255 209 255 255 209 255 255 209 
255 255 205 255 255 205 255 255 205 255 255 205 255 255 205 
255 255 205 255 255 205 255 255 205 255 255 205 255 255 205 
255 254 204 255 253 203 255 255 204 255 255 205 255 255 205 
255 254 205 255 252 203 255 251 200 255 251 198 255 251 200 
255 251 201 255 253 200 255 255 202 255 255 202 255 255 202 
255 255 202 255 255 202 255 255 202 255 254 203 255 253 203 
255 255 202 255 255 202 255 255 202 255 255 202 255 255 202 
255 254 204 255 255 205 255 255 205 255 254 205 255 255 205 
255 255 205 255 254 207 255 254 207 255 254 207 255 254 207 
255 254 209 255 255 209 255 255 209 255 254 211 255 255 209 
255 255 209 255 255 209 255 255 209 255 255 207 255 255 207 
255 255 207 255 255 207 255 255 207 255 255 207 255 255 207 
255 255 207 255 255 209 255 255 209 255 255 207 255 255 209 
255 255 209 255 255 207 255 255 209 255 255 209 255 255 207 
255 255 207 255 255 207 255 255 207 255 255 207 255 255 207 
255 255 207 255 255 207 255 255 207 255 255 207 255 255 207 
255 255 205 255 255 205 255 255 205 255 255 204 255 255 205 
255 255 205 255 255 205 255 255 205 255 255 205 255 255 204 
255 255 205 255 255 205 255 255 205 255 255 205 255 255 205 
255 255 205 255 254 204 255 251 198 255 250 199 255 250 197 
255 249 196 255 250 199 255 252 199 255 254 201 255 254 201 
255 254 201 255 255 202 255 255 204 255 255 205 255 255 205 
255 255 205 255 255 204 255 255 205 255 255 202 255 255 202 
255 254 204 255 255 205 255 255 205 255 255 205 255 254 205 
255 254 205 255 255 205 255 254 207 255 253 206 255 252 205 
255 252 205 255 253 206 255 254 207 255 254 209 255 255 207 
255 255 209 255 255 207 255 255 207 255 254 207 255 254 204 
255 252 203 255 253 204 255 253 203 255 253 204 255 254 204 
255 255 204 255 255 205 255 254 204 255 253 203 255 252 203 
255 253 203 255 255 207 255 255 209 255 255 209 255 255 207 
255 255 207 255 255 205 255 255 205 255 255 205 255 255 207 
255 255 207 255 255 207 255 255 207 255 255 207 255 255 207 
255 255 205 255 253 203 255 251 201 255 250 201 255 250 201 
255 252 202 255 251 201 255 249 196 255 247 196 255 248 195 
255 248 197 255 249 200 255 251 202 255 253 203 255 254 203 
255 254 204 255 254 204 255 252 201 255 251 198 255 251 198 
255 250 197 255 250 197 255 248 199 255 248 197 255 248 199 
255 248 199 255 248 197 255 249 199 255 250 201 255 251 201 
255 249 200 255 248 198 255 249 200 255 251 200 255 249 199 
255 248 200 255 250 201 255 250 201 255 250 200 255 250 199 
255 249 198 255 248 198 255 248 197 255 248 195 255 248 196 
255 248 196 255 248 196 255 248 196 255 248 195 255 248 195 
255 248 195 255 248 196 255 248 196 255 248 195 255 248 195 
255 248 193 255 248 195 255 248 195 255 248 195 255 248 195 
255 249 194 255 248 193 255 248 195 255 248 193 255 248 195 
255 248 193 255 248 195 255 248 196 255 250 197 255 251 200 
255 251 200 255 251 199 255 250 197 255 249 197 255 249 196 
255 248 195 255 249 196 255 249 196 255 250 199 255 251 200 
255 248 195 255 248 195 255 248 195 255 248 195 255 248 195 
255 248 195 255 248 195 255 249 196 255 249 196 255 250 197 
255 249 196 255 248 199 255 249 200 255 252 202 255 253 203 
255 250 203 255 250 203 255 249 200 255 250 201 255 251 199 
255 250 199 255 251 198 255 251 200 255 251 198 255 251 198 
255 252 199 255 252 202 255 252 203 255 252 201 255 251 200 
255 251 198 255 250 197 255 250 197 255 249 199 255 249 198 
255 248 198 255 248 196 255 248 195 255 248 195 255 248 195 
255 248 195 255 248 195 255 248 195 255 248 195 255 248 195 
255 249 196 255 248 195 255 248 195 255 248 195 255 248 195 
255 248 195 255 248 195 255 248 195 255 248 193 255 248 195 
255 248 195 255 248 193 255 248 195 255 248 195 255 248 195 
255 248 195 255 248 195 255 248 193 255 248 193 255 248 193 
255 248 195 255 248 193 255 248 193 255 248 195 255 248 193 
255 248 195 255 248 193 255 248 193 255 248 193 255 248 193 
255 248 193 255 248 195 255 248 193 255 248 195 255 248 195 
255 248 196 255 248 195 255 248 195 255 248 195 255 248 195 
255 249 196 255 248 196 255 248 198 255 251 198 255 252 199 
255 252 202 255 253 202 255 253 204 255 253 202 255 252 203 
255 251 202 255 251 203 255 252 203 255 252 203 255 254 207 
255 253 209 255 254 207 255 254 207 255 254 207 255 253 203 
255 252 202 255 254 204 255 254 207 255 254 207 255 253 204 
255 252 202 255 252 199 255 251 198 255 251 198 255 250 197 
255 249 196 255 249 196 255 248 195 255 248 195 255 248 195 
255 248 195 255 248 195 255 248 195 255 248 195 255 248 195 
255 248 195 255 248 195 255 248 195 255 248 195 255 248 195 
255 248 193 255 248 193 255 248 195 255 248 195 255 248 195 
255 248 195 255 248 193 255 248 195 255 248 195 255 248 195 
255 248 195 255 248 195 255 248 193 255 248 195 255 248 195 
255 248 193 255 248 195 255 248 193 255 248 193 255 248 193 
255 248 193 255 248 193 255 248 193 255 248 193 255 248 192 
255 248 193 255 248 193 255 248 193 255 248 193 255 248 195 
255 249 196 255 250 197 255 251 198 255 252 201 255 252 201 
255 253 200 255 251 200 255 250 200 255 251 198 255 252 202 
255 254 205 255 254 207 255 253 207 255 253 207 255 254 205 
255 252 204 255 253 204 255 254 207 255 253 204 255 254 205 
255 254 207 255 253 209 255 253 209 255 253 209 255 254 205 
255 254 207 255 254 207 255 254 207 255 254 207 255 254 207 
255 253 207 255 253 204 255 251 202 255 249 200 255 249 199 
255 249 196 255 248 195 255 248 195 255 248 195 255 248 195 
255 248 193 255 248 195 255 248 195 255 248 195 255 248 195 
255 248 195 255 248 195 255 248 195 255 248 195 255 248 195 
255 248 195 255 248 193 255 248 195 255 248 195 255 248 193 
255 248 195 255 248 195 255 248 193 255 248 195 255 248 195 
255 248 193 255 248 193 255 248 193 255 248 193 255 248 193 
255 248 193 255 248 193 255 248 193 255 248 193 255 248 193 
255 248 193 255 248 193 255 248 193 255 248 193 255 248 193 
255 248 193 255 248 193 255 248 193 255 248 193 255 248 195 
255 251 198 255 253 202 255 253 202 255 253 203 255 253 203 
255 253 202 255 253 202 255 252 201 255 253 202 255 253 205 
255 254 207 255 254 207 255 253 209 255 253 209 255 254 207 
255 254 207 255 254 207 255 254 207 255 254 205 255 254 205 
255 254 207 255 253 209 255 253 211 255 253 209 255 253 209 
255 253 209 255 253 209 255 254 207 255 254 207 255 253 207 
255 252 205 255 251 202 255 249 199 255 249 199 255 248 197 
255 248 195 255 248 195 255 248 195 255 248 195 255 248 195 
255 248 195 255 248 195 255 248 195 255 248 195 255 248 193 
255 248 195 255 248 195 255 248 195 255 248 195 255 248 193 
255 248 193 255 248 193 255 248 193 255 248 195 255 248 195 
255 248 195 255 248 195 255 248 195 255 248 193 255 248 193 
255 248 193 255 248 193 255 248 193 255 248 193 255 248 193 
255 248 193 255 248 193 255 248 193 255 248 193 255 248 193 
255 248 193 255 248 193 255 248 193 255 248 193 255 248 193 
255 248 193 255 248 193 255 248 193 255 248 193 255 248 193 
255 253 200 255 253 200 255 252 202 255 253 203 255 253 202 
255 253 204 255 254 207 255 254 205 255 254 205 255 254 207 
255 254 207 255 254 207 255 254 207 255 254 207 255 253 209 
255 253 209 255 253 209 255 253 209 255 253 207 255 253 206 
255 253 206 255 252 208 255 251 207 255 251 207 255 252 207 
255 253 206 255 252 207 255 251 203 255 251 202 255 251 204 
255 249 200 255 248 198 255 248 198 255 248 197 255 248 196 
255 248 195 255 248 195 255 249 196 255 248 195 255 248 195 
255 248 195 255 248 195 255 248 195 255 248 195 255 248 195 
255 248 195 255 249 196 255 248 195 255 248 195 255 249 196 
255 248 195 255 248 195 255 248 195 255 248 195 255 248 195 
255 248 195 255 248 195 255 248 195 255 248 195 255 248 195 
255 248 193 255 248 196 255 248 195 255 248 195 255 248 195 
255 248 195 255 248 195 255 248 193 255 248 193 255 248 195 
255 248 195 255 248 195 255 248 195 255 248 195 255 248 195 
255 248 195 255 248 195 255 248 195 255 248 195 255 248 195 
255 251 201 255 252 201 255 252 202 255 251 200 255 252 201 
255 253 202 255 254 205 255 253 206 255 253 204 255 252 205 
255 252 205 255 253 207 255 254 207 255 254 207 255 251 207 
255 250 203 255 252 205 255 252 208 255 251 204 255 250 203 
255 249 200 255 249 200 255 248 198 255 249 198 255 249 199 
255 249 198 255 249 198 255 248 195 255 248 195 255 248 195 
255 248 195 255 248 195 255 248 193 255 246 191 255 244 190 
255 244 187 255 243 189 255 245 191 255 247 192 255 248 193 
255 248 195 255 248 193 255 248 195 255 248 193 255 248 195 
255 248 194 255 247 192 255 247 194 255 248 193 255 248 193 
255 248 193 255 248 195 255 248 193 255 248 195 255 248 195 
255 248 193 255 248 193 255 248 193 255 248 195 255 247 192 
255 247 192 255 246 191 255 245 191 255 246 191 255 247 192 
255 248 193 255 248 193 255 248 195 255 248 193 255 248 193 
255 248 193 255 248 193 255 248 193 255 248 193 255 248 195 
255 248 193 255 248 193 255 248 193 255 248 193 255 248 195 
255 248 198 255 249 197 255 249 199 255 250 197 255 250 197 
255 250 197 255 250 199 255 249 198 255 248 196 255 249 197 
255 249 196 255 248 197 255 251 204 255 251 204 255 249 198 
255 248 198 255 250 200 255 250 203 255 250 202 255 248 197 
255 248 193 255 248 195 255 248 193 255 248 193 255 248 195 
255 248 195 255 248 195 255 248 195 255 247 195 255 246 191 
255 243 189 255 242 187 255 241 185 255 241 185 255 242 185 
255 242 185 255 242 185 255 243 186 255 243 186 255 243 186 
255 242 186 255 241 185 255 240 184 255 242 186 255 244 187 
255 244 187 255 244 187 255 244 190 255 244 190 255 245 191 
255 247 192 255 248 193 255 248 193 255 248 193 255 247 192 
255 245 190 255 244 189 255 243 186 255 242 185 255 241 185 
255 242 185 255 242 185 255 243 186 255 242 188 255 245 188 
255 245 191 255 247 192 255 247 192 255 247 192 255 248 193 
255 248 193 255 248 193 255 248 193 255 247 192 255 248 193 
255 248 193 255 248 195 255 248 193 255 248 193 255 247 193 
255 248 195 255 248 195 255 248 196 255 247 195 255 247 195 
255 247 195 255 248 195 255 248 195 255 247 195 255 247 194 
255 247 194 255 248 193 255 246 195 255 246 193 255 244 190 
255 243 189 255 244 190 255 246 191 255 246 191 255 247 192 
255 247 192 255 246 193 255 247 192 255 245 190 255 242 188 
255 238 182 255 236 178 255 235 177 255 235 178 255 237 179 
255 237 180 255 238 181 255 239 181 255 239 182 255 239 183 
255 239 182 255 239 183 255 238 181 255 236 179 255 234 177 
255 233 174 255 233 174 255 233 174 255 233 174 255 233 174 
255 235 176 255 237 179 255 238 181 255 240 182 255 241 183 
255 241 184 255 240 182 255 239 181 255 238 180 255 236 178 
255 236 179 255 236 179 255 238 178 255 237 180 255 238 181 
255 238 181 255 239 182 255 240 183 255 240 183 255 242 184 
255 243 186 255 244 187 255 244 190 255 245 191 255 245 191 
255 246 192 255 245 191 255 245 191 255 245 190 255 244 188 
255 244 188 255 243 189 255 243 189 255 244 187 255 244 190 
255 246 192 255 246 192 255 247 193 255 248 193 255 246 192 
255 247 192 255 246 192 255 245 191 255 244 190 255 244 187 
255 243 186 255 242 185 255 242 185 255 241 185 255 241 185 
255 240 184 255 240 184 255 241 184 255 241 184 255 239 181 
255 237 180 255 236 178 255 233 174 255 233 174 255 232 173 
255 232 173 255 232 173 255 233 174 255 233 174 255 233 174 
255 232 173 255 233 174 255 233 174 255 234 175 255 234 175 
255 234 175 255 233 174 255 232 173 255 232 171 255 232 173 
255 231 170 255 231 172 255 231 172 255 230 169 255 230 171 
255 230 171 255 230 169 255 231 170 255 231 170 255 232 171 
255 231 173 254 229 171 253 226 166 253 224 164 252 223 163 
252 224 164 253 225 164 254 227 167 254 230 171 255 233 174 
255 236 176 255 236 179 255 236 179 255 237 180 255 238 181 
255 239 182 255 239 182 255 239 182 255 240 182 255 240 184 
255 239 181 255 238 181 255 238 181 255 238 181 255 239 181 
255 239 182 255 239 183 255 239 182 255 240 183 255 242 185 
255 235 177 255 237 179 255 238 181 255 239 183 255 240 184 
255 240 184 255 240 184 255 240 184 255 240 184 255 240 184 
255 240 182 255 239 182 255 237 179 255 234 177 255 233 176 
255 233 174 255 233 176 255 233 174 255 232 173 255 232 173 
255 231 172 255 230 171 255 230 169 255 230 171 255 230 171 
255 230 171 255 230 171 255 231 172 255 230 171 255 231 170 
255 231 172 255 231 170 255 232 173 255 232 173 255 232 173 
255 231 172 255 230 169 255 230 169 255 228 168 255 228 168 
255 227 167 255 227 167 255 227 167 254 226 166 255 226 166 
254 226 166 255 226 166 254 226 165 252 224 162 252 221 162 
250 220 158 250 220 158 250 220 158 250 220 158 250 220 158 
251 221 159 251 221 161 251 221 159 252 222 160 253 223 161 
253 225 163 255 228 168 255 231 170 255 232 171 255 233 174 
255 233 174 255 232 173 253 229 170 252 226 165 250 222 162 
249 219 160 248 218 157 249 219 157 250 222 162 252 226 165 
253 230 169 255 233 174 255 235 178 255 236 179 255 237 180 
253 225 166 253 225 165 253 225 167 252 225 165 254 229 171 
255 234 175 255 234 175 255 234 177 255 234 178 255 233 176 
254 231 172 254 226 166 253 225 165 253 224 164 253 224 164 
253 224 164 253 224 164 253 224 164 253 225 165 254 225 165 
254 226 166 254 226 166 255 226 166 255 226 166 255 226 166 
255 226 166 255 226 166 255 227 167 255 227 167 255 227 169 
255 227 167 255 227 167 255 227 167 255 227 167 255 227 167 
255 226 166 255 226 166 255 226 166 254 227 164 254 226 163 
254 226 163 254 224 162 254 224 162 253 223 159 252 222 160 
250 220 156 249 217 154 248 217 153 248 217 151 248 216 153 
248 216 154 247 217 155 248 218 155 248 218 155 248 218 154 
248 218 154 248 218 154 249 219 155 250 220 154 251 221 155 
252 222 158 253 223 159 253 223 161 253 223 161 250 221 157 
248 216 155 246 214 151 247 213 150 247 213 150 248 214 151 
247 215 152 247 215 154 248 216 154 248 216 155 248 218 156 
249 219 157 250 220 158 252 222 160 252 225 165 254 228 167 
251 221 161 251 221 159 250 220 160 249 219 157 252 223 163 
255 230 172 255 230 172 255 228 170 254 226 166 253 224 164 
253 224 164 253 222 163 252 223 163 252 222 160 252 222 162 
251 221 161 251 221 159 251 221 161 251 221 161 250 220 158 
252 222 160 251 221 159 251 221 159 251 221 159 252 222 160 
252 222 160 252 223 161 253 224 164 253 224 164 254 225 165 
254 225 163 253 225 165 253 224 164 254 225 163 253 224 164 
253 224 162 253 223 161 252 222 160 251 221 159 250 220 156 
249 219 155 248 218 154 248 216 153 247 215 151 248 215 150 
248 214 150 248 214 150 248 214 150 248 214 150 248 214 150 
248 214 150 248 214 150 249 215 151 249 215 151 250 216 150 
251 218 151 251 217 153 251 218 154 251 218 154 249 218 153 
248 217 151 247 214 149 246 212 148 244 211 146 244 210 146 
244 210 145 244 210 145 244 210 146 245 211 146 245 211 148 
245 211 147 246 212 149 246 211 151 246 213 150 245 214 150 
247 215 152 247 215 154 248 216 155 248 218 156 250 220 158 
251 221 161 251 221 161 251 221 161 253 223 161 254 224 162 
255 225 165 254 224 162 251 221 159 252 222 162 251 221 159 
251 221 159 251 220 160 250 220 158 250 220 158 250 220 158 
248 218 156 249 219 157 250 218 157 249 219 157 249 219 157 
249 219 157 249 219 157 249 219 156 248 218 156 249 218 156 
249 219 156 249 219 155 249 218 154 249 218 152 249 217 154 
249 218 154 250 219 155 249 219 157 249 219 155 248 217 153 
248 217 152 248 217 151 248 217 152 247 216 152 250 216 152 
249 215 151 247 213 149 246 212 148 245 211 146 245 210 144 
244 211 144 244 210 146 245 211 147 247 214 147 248 214 148 
248 215 148 249 216 149 249 216 149 250 217 150 250 217 150 
249 216 150 251 216 150 250 215 149 249 214 148 247 214 147 
247 212 146 246 211 145 245 210 144 245 210 144 245 210 144 
245 209 145 245 210 146 244 210 146 244 210 147 244 210 147 
244 210 145 244 210 146 244 210 147 244 210 147 245 211 147 
246 212 148 248 214 150 249 215 151 250 217 154 250 219 155 
253 223 161 252 222 160 252 222 160 252 222 160 251 221 159 
251 219 156 249 219 157 249 219 157 249 219 157 248 218 156 
248 218 156 248 216 155 248 218 156 246 217 152 248 216 155 
247 215 153 247 215 152 247 215 154 247 215 154 248 216 155 
247 215 154 248 216 153 248 216 152 248 215 150 248 214 150 
248 214 150 248 214 150 246 212 148 248 214 150 248 214 150 
249 215 151 249 215 151 249 216 149 247 213 149 250 217 150 
250 216 151 249 216 149 246 213 146 245 210 144 242 207 141 
240 205 139 241 206 140 241 206 140 241 206 140 241 206 140 
241 206 140 241 206 140 243 208 142 246 211 145 248 213 147 
249 214 148 248 213 147 248 213 145 248 213 145 249 214 148 
250 215 149 249 214 148 249 214 148 249 214 148 248 213 147 
248 213 147 248 213 149 249 214 148 249 214 148 249 214 148 
249 214 150 249 214 150 248 213 149 246 210 147 242 207 143 
241 205 142 240 205 141 240 206 143 243 209 145 246 212 149 
248 214 150 249 215 151 250 216 151 250 217 150 251 217 154 
250 219 160 249 218 159 249 219 157 248 218 156 248 218 156 
247 217 155 248 216 153 249 217 155 249 217 154 246 215 151 
248 217 152 249 215 152 248 214 151 248 214 150 247 213 149 
248 214 150 248 214 151 249 215 150 248 214 150 248 214 150 
247 213 149 249 215 151 249 215 151 249 216 149 245 211 147 
248 214 149 247 213 149 246 212 148 248 214 150 248 215 148 
249 215 151 249 216 149 248 214 150 247 212 146 245 210 144 
242 207 141 239 204 136 240 203 135 240 203 135 238 203 135 
239 204 137 239 204 138 239 204 138 240 205 139 241 206 138 
243 208 140 245 210 142 246 211 143 246 211 143 247 212 144 
246 211 143 247 211 143 247 210 142 247 210 142 247 211 143 
246 211 143 246 211 143 246 211 143 246 211 143 247 212 146 
247 212 146 247 212 146 248 213 147 248 213 147 246 211 145 
243 208 142 239 202 137 235 197 132 232 194 129 233 195 130 
233 195 131 233 196 131 234 196 133 232 197 133 233 197 133 
236 200 136 240 205 141 245 209 146 248 212 149 250 214 150 
249 218 159 250 218 157 250 218 157 246 214 153 247 215 154 
249 217 156 248 214 153 250 216 155 250 216 155 249 215 152 
249 215 152 246 212 149 248 214 150 245 211 147 247 213 149 
248 212 148 247 212 148 246 210 147 249 215 151 247 212 148 
246 213 149 248 214 150 246 211 147 246 212 148 246 211 147 
248 213 149 245 211 147 248 213 149 248 214 150 249 214 150 
247 212 146 245 210 144 242 207 141 240 205 141 240 202 137 
239 201 136 239 201 136 240 203 135 240 202 137 240 202 137 
239 204 136 243 205 138 244 207 139 245 208 140 243 208 142 
244 209 141 246 211 143 246 211 143 248 211 143 247 210 142 
246 209 141 246 209 141 246 209 141 245 208 140 246 209 141 
247 210 142 247 210 142 246 208 143 247 209 144 247 209 144 
246 211 145 244 209 143 241 204 139 237 199 134 231 193 128 
229 191 126 230 192 127 230 192 127 231 193 130 231 193 128 
232 194 129 232 194 131 233 195 131 233 195 132 233 195 132 
233 195 130 234 194 131 234 194 132 234 196 133 237 197 134 
245 211 150 246 212 150 248 214 150 245 211 148 248 214 151 
249 215 151 243 210 147 248 214 151 247 214 149 247 212 148 
245 210 146 247 212 146 246 211 145 246 210 146 248 213 147 
247 212 146 246 211 145 245 210 144 246 211 147 244 209 143 
242 207 143 239 204 138 237 202 138 239 203 139 239 204 138 
240 205 141 238 202 140 242 206 142 242 207 143 242 207 143 
242 207 141 242 207 141 242 204 139 241 203 138 240 202 135 
239 202 134 240 203 135 241 204 136 241 203 136 243 206 138 
244 207 139 244 207 139 244 207 137 244 207 139 245 208 140 
246 208 140 246 209 139 247 210 140 247 210 140 245 208 138 
245 208 138 245 208 138 245 208 138 245 208 138 245 208 140 
246 209 141 245 208 140 245 208 140 243 206 140 240 203 135 
237 198 131 232 193 126 229 189 125 228 188 124 228 189 124 
228 189 124 229 190 125 229 191 126 229 191 126 230 192 127 
230 192 127 230 192 127 230 192 127 231 193 128 231 193 128 
232 193 128 233 193 129 232 193 128 232 192 130 233 191 129 
245 209 147 241 206 142 246 211 147 246 210 146 243 208 144 
247 211 147 246 211 147 245 210 146 242 207 141 246 211 145 
243 208 142 246 211 145 245 210 144 244 209 143 243 208 142 
241 204 139 239 201 136 237 199 134 235 198 132 235 197 132 
235 197 132 235 197 132 235 196 135 235 197 133 235 197 133 
234 196 131 234 196 133 235 197 133 236 198 133 237 199 134 
238 200 135 239 201 136 241 204 136 241 204 136 241 204 136 
242 205 137 241 204 136 241 204 136 240 203 135 241 204 136 
242 205 135 243 206 136 244 207 137 244 207 139 245 208 140 
245 208 138 246 209 139 245 208 138 245 208 138 245 208 138 
244 207 137 244 207 137 244 205 136 244 204 135 240 203 135 
240 203 133 239 200 133 236 197 130 232 193 126 229 190 123 
227 188 121 226 187 120 227 188 121 227 188 121 227 188 121 
228 189 122 228 189 122 227 190 122 228 191 123 228 190 125 
228 190 125 229 191 126 228 190 125 229 192 124 229 191 126 
229 191 126 230 191 126 230 191 126 230 191 126 187 147 101 
246 211 147 244 205 144 246 211 147 244 209 143 248 210 145 
247 210 147 243 207 142 245 210 144 246 208 143 247 209 144 
244 206 141 245 208 140 238 201 134 239 200 133 237 198 131 
234 197 129 234 196 131 233 195 130 234 196 131 234 196 131 
234 196 131 234 196 131 234 196 131 234 197 129 235 197 131 
235 198 130 233 195 130 238 200 133 238 201 133 240 203 135 
238 201 133 232 193 128 239 202 134 236 197 130 233 194 127 
229 190 123 227 188 121 226 187 120 227 188 121 226 187 120 
226 187 120 226 187 120 226 187 120 228 189 122 230 191 124 
232 193 124 233 194 127 235 196 127 237 198 129 239 200 131 
239 200 131 239 200 131 239 198 130 184 123 70 219 172 109 
231 192 123 228 189 122 225 187 117 226 186 117 226 185 117 
225 186 119 225 186 117 226 187 120 226 187 118 227 188 121 
227 188 121 227 188 121 228 189 122 227 190 122 227 190 122 
227 190 122 227 190 122 227 190 122 227 189 124 227 189 123 
227 189 124 227 189 124 227 189 126 212 173 114 134 93 69 
249 211 148 248 210 149 248 210 149 241 203 141 248 210 148 
248 210 147 242 204 141 245 210 144 245 207 142 238 200 134 
245 208 140 244 207 139 242 203 136 242 203 136 241 202 135 
241 202 135 240 202 135 240 202 135 240 203 135 240 202 135 
240 203 135 241 204 136 241 203 136 235 196 131 242 205 137 
243 204 137 243 204 137 243 204 137 241 202 135 236 197 130 
231 192 125 225 186 121 223 184 117 223 184 117 225 184 118 
224 185 118 225 184 118 226 185 119 225 184 118 225 184 118 
224 185 118 224 185 118 224 185 118 224 185 118 224 185 118 
224 185 118 225 186 117 225 186 117 227 188 119 228 189 120 
230 191 122 230 190 121 228 185 118 161 88 45 206 154 94 
223 183 114 223 183 114 224 184 115 225 185 116 225 185 116 
225 185 116 225 186 117 225 186 117 225 186 117 226 187 120 
226 187 120 226 187 120 227 188 121 227 188 121 227 188 121 
227 188 121 227 188 121 226 189 121 227 188 120 226 188 123 
226 188 123 226 188 123 227 187 125 180 140 91 122 83 61 
248 210 145 248 210 145 248 210 145 243 204 143 247 208 145 
247 209 145 246 208 146 245 207 144 245 207 144 239 198 138 
245 207 141 245 207 142 245 208 140 245 207 142 245 208 140 
245 208 140 245 208 140 245 208 140 245 208 140 245 208 140 
246 209 141 246 208 141 246 207 140 242 205 139 242 203 136 
238 199 132 232 193 126 228 187 119 223 182 116 222 181 115 
222 181 115 222 181 115 222 181 115 222 181 115 223 182 116 
223 182 116 223 182 116 224 183 117 223 182 116 224 183 117 
223 184 117 222 183 116 222 183 118 223 183 116 222 183 116 
223 184 119 225 186 119 226 187 120 228 189 122 229 190 121 
229 190 121 228 187 119 208 158 95 159 80 38 194 133 77 
222 182 113 222 182 113 222 182 113 223 183 114 224 184 115 
224 184 115 225 185 116 224 185 116 225 186 117 225 186 117 
225 186 117 225 186 119 225 186 119 225 186 119 226 187 120 
226 187 120 226 187 120 226 187 120 227 188 120 227 188 121 
228 189 122 229 190 123 230 191 124 149 111 74 128 96 76 
247 208 146 247 209 145 247 209 145 246 208 145 246 208 145 
233 193 132 246 208 143 246 208 143 246 208 143 247 206 146 
247 207 145 247 207 145 247 208 143 246 208 143 247 207 145 
247 209 144 247 209 145 247 209 144 245 207 144 244 206 142 
241 203 140 239 201 136 236 197 130 231 192 125 228 187 123 
225 184 120 224 183 119 222 181 117 221 180 114 221 180 116 
221 180 116 222 181 117 222 181 117 223 182 118 223 182 116 
223 182 116 223 182 118 223 182 116 223 182 116 223 182 116 
223 182 116 223 183 114 224 184 115 224 183 117 226 185 119 
229 188 122 232 191 125 235 195 126 236 196 127 236 195 127 
235 195 126 234 192 124 185 119 69 148 71 37 165 92 51 
227 184 116 226 186 117 226 186 117 226 186 117 227 187 118 
226 186 117 227 187 118 227 187 118 228 188 119 228 188 119 
228 187 121 228 189 120 228 189 122 229 190 121 230 191 122 
231 192 123 233 193 124 233 194 125 233 194 126 235 195 128 
236 195 127 236 196 127 228 187 121 127 91 65 136 105 85 
245 207 140 246 207 140 246 207 140 246 207 140 246 207 140 
241 201 141 246 207 142 247 207 143 247 208 143 247 208 143 
247 208 143 247 208 143 246 207 142 246 207 142 246 207 142 
244 205 140 244 205 140 242 203 138 240 201 136 239 200 135 
237 198 133 235 196 129 234 195 128 233 192 126 233 192 126 
232 192 125 232 191 125 232 191 125 231 190 124 232 191 123 
232 191 125 233 193 125 233 193 124 233 193 124 234 193 125 
234 193 125 233 192 126 233 192 124 232 192 123 232 192 124 
232 192 125 233 193 124 234 194 125 235 194 126 236 195 129 
236 196 128 237 197 127 237 197 127 237 197 127 237 197 128 
237 197 127 238 193 124 159 86 44 144 69 37 150 74 38 
213 158 100 234 193 125 235 194 126 235 195 126 235 195 126 
235 195 126 235 195 125 235 195 125 235 195 126 235 194 126 
235 195 126 236 195 127 236 195 127 236 196 127 236 196 128 
237 196 128 237 197 127 238 197 129 238 198 129 238 198 129 
238 198 129 238 198 129 200 159 103 132 100 79 146 115 95 
243 204 137 242 203 134 242 203 134 243 204 135 243 204 135 
243 204 137 244 205 138 244 205 140 244 205 138 244 205 138 
244 205 138 245 206 139 244 205 138 244 205 140 244 205 140 
243 204 139 243 204 139 243 204 137 243 204 137 242 203 136 
242 203 136 241 202 135 241 202 135 240 201 132 241 200 134 
241 200 134 240 200 131 240 200 131 239 198 130 238 198 128 
238 198 129 237 197 127 237 197 128 236 196 127 236 196 127 
236 196 127 236 195 127 236 196 127 237 197 128 237 197 127 
237 197 128 236 196 127 237 197 128 236 196 128 237 197 127 
237 197 128 237 197 128 237 197 128 237 197 127 237 197 128 
236 196 126 226 177 113 145 73 38 142 69 37 143 69 36 
170 103 60 236 195 125 237 197 127 238 198 128 238 198 129 
238 198 128 238 198 128 239 199 130 239 199 130 239 199 130 
239 199 129 238 198 128 238 198 129 239 199 129 240 200 131 
239 199 130 239 199 130 239 199 130 239 199 129 240 200 130 
239 199 130 239 199 130 168 129 86 144 113 93 153 122 102 
242 202 133 241 202 133 242 203 134 243 204 135 243 204 135 
244 205 136 244 205 138 244 205 138 245 206 139 245 206 139 
246 207 140 245 205 140 244 204 139 243 204 139 242 203 138 
241 202 137 241 202 137 241 202 137 241 202 135 240 201 136 
240 200 136 239 200 135 239 200 135 239 200 133 239 200 133 
240 199 133 239 198 132 239 198 131 239 199 130 238 198 129 
238 198 128 238 198 128 237 197 127 237 197 127 237 197 127 
237 197 127 237 197 127 237 197 127 237 197 127 236 196 126 
236 196 126 236 196 126 238 197 130 240 199 135 242 201 141 
244 203 145 246 205 151 246 207 155 246 209 157 247 209 158 
247 209 160 224 177 127 163 96 53 161 94 55 170 102 61 
179 115 69 241 198 147 247 207 157 247 208 155 247 208 153 
247 206 149 247 204 145 245 203 141 243 202 136 242 202 133 
241 201 132 241 201 132 241 201 132 241 201 132 241 201 132 
240 200 131 240 200 131 240 200 131 240 200 131 240 200 130 
240 200 131 235 195 127 141 105 77 154 125 104 178 145 111 
242 203 134 243 204 135 244 205 136 245 206 137 245 206 139 
245 206 139 244 205 138 242 203 136 239 200 135 235 196 131 
231 192 127 229 190 125 227 188 123 227 187 124 227 187 123 
226 187 122 228 189 124 230 190 126 230 191 126 231 190 126 
233 192 128 234 193 129 234 193 129 235 196 131 236 195 131 
237 196 132 237 196 130 237 196 130 237 196 130 238 198 129 
237 196 128 237 197 128 237 197 128 237 197 128 237 197 127 
236 196 126 238 198 132 242 202 141 244 203 149 245 207 156 
245 209 161 247 210 166 246 211 168 243 210 167 244 210 168 
243 209 166 241 210 166 241 210 166 240 209 165 239 206 163 
236 203 158 231 197 150 223 182 136 220 180 133 225 184 138 
231 193 146 233 198 154 236 201 157 238 204 159 241 205 159 
244 205 160 245 206 161 246 207 163 248 209 164 248 210 165 
248 209 159 246 208 151 246 204 142 243 202 134 242 202 132 
242 202 132 241 201 132 241 201 131 241 201 132 241 200 132 
240 200 130 213 170 113 145 113 92 164 135 117 210 174 124 
244 205 136 244 205 136 243 203 134 240 201 132 237 196 130 
232 191 125 227 186 122 224 183 119 222 181 119 221 180 118 
221 180 118 221 180 118 221 180 118 221 180 118 221 180 118 
220 179 117 220 178 118 220 179 117 221 179 119 223 181 121 
225 183 123 228 186 124 230 189 125 232 191 129 234 193 129 
235 194 130 236 195 129 236 195 129 236 195 129 236 195 129 
236 195 129 236 196 130 237 196 130 241 200 138 244 205 151 
247 210 164 246 211 168 241 210 167 240 209 165 239 207 166 
239 207 166 238 206 165 237 205 164 237 205 164 237 205 164 
237 205 164 237 205 164 237 205 164 236 204 163 236 204 163 
236 203 160 235 202 158 233 201 156 233 200 155 232 200 155 
233 200 157 235 201 160 235 202 159 236 203 160 237 203 163 
237 204 163 236 203 160 237 202 160 238 203 159 239 204 160 
242 205 160 244 207 161 245 209 164 250 211 166 249 210 159 
247 207 149 245 204 140 243 202 134 243 203 133 242 202 133 
241 201 132 182 143 100 158 127 107 171 142 121 234 194 132 
234 194 125 230 190 121 226 186 117 222 181 115 220 179 115 
219 178 114 219 178 114 219 178 116 221 177 116 221 177 116 
221 177 116 221 177 116 219 178 116 219 178 116 219 178 116 
218 177 115 219 177 117 219 177 117 221 178 121 223 182 122 
227 185 125 229 188 126 231 190 126 233 192 128 234 193 129 
234 193 129 235 194 129 235 194 128 236 196 129 239 198 136 
243 202 146 247 207 157 247 211 167 244 210 168 241 209 168 
240 208 167 239 207 166 238 207 165 237 206 162 237 205 163 
236 205 161 236 204 163 236 205 161 235 203 162 235 203 162 
234 202 161 233 202 158 234 202 161 234 202 161 234 202 161 
233 201 160 232 201 157 232 200 159 233 201 160 233 201 160 
233 201 160 233 201 160 233 201 160 234 201 158 234 201 160 
234 201 160 235 202 159 235 202 159 235 202 159 235 202 159 
234 201 158 236 202 159 238 203 159 241 203 158 243 205 158 
247 209 162 249 210 163 249 210 161 247 207 151 245 203 139 
240 199 133 157 119 92 172 143 125 193 162 132 241 200 134 
219 178 112 218 177 111 218 177 111 218 177 113 218 177 113 
220 176 115 219 175 114 220 176 115 220 176 115 220 176 113 
220 176 113 219 175 114 218 177 115 218 177 115 218 177 115 
219 178 116 222 181 119 226 184 124 229 187 125 230 189 125 
232 191 127 233 192 128 235 194 130 236 195 129 238 197 133 
241 200 136 245 203 145 248 207 155 249 210 163 246 213 170 
243 212 171 242 210 169 240 208 167 239 207 166 238 206 165 
237 205 164 236 204 163 236 204 163 235 203 162 235 203 162 
235 203 162 235 204 160 235 203 162 234 202 161 234 202 161 
233 201 160 233 201 160 233 201 160 232 200 159 228 197 155 
226 194 155 227 195 156 228 196 157 228 196 156 226 194 155 
226 194 155 226 194 155 227 195 156 228 196 157 227 194 153 
224 191 150 224 191 150 226 193 152 228 195 154 228 195 152 
229 196 153 228 195 152 228 195 152 229 196 153 229 196 153 
231 197 152 236 198 153 242 203 158 245 206 159 248 210 163 
224 184 142 160 128 105 184 157 138 221 186 142 242 203 136 
216 175 111 216 175 111 216 175 111 219 175 112 219 175 112 
218 174 113 218 174 113 218 174 113 217 174 111 216 175 111 
217 176 112 219 178 114 223 182 118 226 185 121 228 187 123 
230 189 123 232 191 127 233 192 128 236 195 131 239 198 134 
241 200 136 243 202 138 245 204 140 248 207 149 248 211 159 
248 213 168 245 212 169 245 213 172 242 210 169 240 208 167 
239 207 166 238 206 165 237 205 166 236 204 165 236 204 164 
235 203 164 234 202 163 234 202 161 234 202 161 234 202 161 
234 202 161 233 201 160 232 200 159 230 198 157 230 198 158 
229 197 157 226 194 155 223 190 153 221 188 151 219 187 149 
218 185 150 218 185 150 218 185 150 218 186 148 219 186 151 
220 187 152 220 187 152 219 186 151 218 185 150 218 186 148 
218 185 148 218 186 146 218 184 146 218 184 146 217 183 145 
217 183 145 217 183 145 217 183 145 217 183 145 218 185 144 
219 186 145 223 190 147 226 191 149 228 194 150 231 196 152 
194 160 125 180 149 127 191 163 143 243 206 162 248 208 150 
217 173 110 217 173 110 217 173 110 218 174 111 216 175 111 
217 176 112 218 177 113 221 180 116 224 183 119 226 185 121 
229 188 124 232 191 127 234 193 127 236 195 129 239 198 132 
241 201 134 243 202 138 245 204 140 247 205 142 246 206 142 
248 207 149 249 210 157 247 212 168 246 212 169 244 212 171 
243 211 170 241 209 168 239 207 166 238 206 167 237 205 166 
236 204 164 236 204 165 235 203 163 234 202 163 231 199 161 
228 196 158 226 193 156 224 191 154 223 191 153 223 190 153 
223 191 153 223 191 153 224 192 154 224 192 154 222 190 152 
219 187 149 217 184 149 217 184 149 216 183 148 216 183 148 
215 182 147 215 182 147 215 182 147 215 182 147 215 182 147 
215 182 147 216 183 148 215 182 147 215 182 147 215 182 147 
215 182 147 215 182 147 215 182 147 215 182 147 215 183 145 
215 183 145 214 182 145 216 182 144 215 181 143 216 182 144 
215 181 143 217 183 145 219 186 145 221 188 147 223 190 149 
185 153 118 197 167 143 205 177 146 232 196 156 242 203 159 
217 176 112 218 177 113 222 181 117 224 183 119 226 185 121 
230 186 123 233 189 124 232 191 125 237 193 128 238 197 131 
240 199 133 243 202 136 244 203 139 246 204 140 245 206 141 
246 206 143 246 208 147 248 209 154 249 211 160 249 213 167 
246 213 169 243 211 170 242 210 169 241 209 168 240 208 167 
239 207 166 238 206 165 237 205 166 235 203 164 235 203 163 
233 201 162 231 199 161 227 195 157 223 191 153 220 187 152 
218 185 150 218 185 150 218 185 150 219 186 151 218 185 150 
218 185 150 218 185 150 217 184 149 217 184 149 215 182 147 
215 182 147 215 182 147 215 182 147 215 182 147 214 181 146 
215 182 149 214 181 146 214 181 146 214 181 148 214 181 146 
215 182 147 214 181 146 214 181 146 214 181 148 214 181 146 
214 181 146 214 181 146 214 181 146 214 181 146 214 181 146 
214 181 146 214 181 146 214 181 145 213 181 143 214 180 143 
215 181 143 215 181 143 215 181 143 216 182 143 214 180 143 
201 168 133 207 176 144 216 183 148 224 189 149 227 188 147 
228 187 121 230 189 123 234 190 125 236 192 127 239 195 130 
240 197 132 243 200 134 243 201 135 244 203 139 244 205 140 
246 206 143 245 207 144 245 207 146 246 208 148 247 210 156 
248 212 162 249 214 170 248 215 172 245 213 172 242 210 169 
241 209 168 240 208 167 240 208 167 238 206 165 237 205 164 
235 203 164 233 201 162 233 201 162 231 199 160 230 197 160 
226 194 156 222 190 152 219 187 149 218 185 150 217 184 149 
216 183 148 215 182 147 216 183 148 216 183 148 215 182 147 
215 182 147 215 182 147 215 182 147 215 182 147 215 182 149 
215 182 147 215 182 147 215 182 147 214 181 146 214 181 146 
214 181 148 214 181 146 214 181 146 214 181 148 214 181 148 
214 181 148 214 181 148 214 181 146 214 181 148 214 181 148 
214 181 148 214 181 146 213 180 145 213 180 145 213 180 145 
213 180 145 213 180 145 213 180 145 213 180 145 213 181 144 
214 180 142 215 181 144 215 181 143 215 181 144 214 182 144 
214 182 145 215 183 146 216 182 145 216 183 142 218 183 143 
240 196 131 240 199 133 241 200 134 243 202 136 243 204 139 
244 204 140 244 205 140 244 206 142 246 207 145 246 208 146 
246 208 149 247 210 155 249 213 163 249 214 171 248 214 174 
246 213 172 246 213 172 244 211 170 241 209 168 240 208 167 
239 207 166 237 205 164 235 203 162 234 202 161 234 200 162 
231 197 159 228 196 157 227 195 157 222 190 153 219 187 149 
217 184 149 217 184 149 215 183 147 215 182 147 214 181 146 
214 181 146 214 181 146 214 181 146 215 181 146 213 180 145 
214 181 146 214 181 146 214 181 146 214 181 146 214 181 146 
214 181 146 214 181 146 214 181 146 214 181 146 213 180 145 
214 181 146 213 180 145 213 180 145 213 180 147 214 181 148 
214 181 148 214 181 148 214 181 148 214 181 148 214 181 148 
214 181 148 214 181 148 213 180 147 213 180 145 213 180 145 
213 180 145 213 180 145 213 180 145 213 180 145 213 180 145 
213 181 143 214 182 144 214 181 146 213 180 144 213 181 144 
214 182 144 215 181 144 216 182 143 216 183 142 216 183 142 
242 203 138 244 205 138 244 205 140 245 205 143 245 207 146 
246 208 146 246 208 149 245 208 151 247 210 156 248 212 162 
249 214 169 247 213 172 245 212 171 246 213 172 245 212 171 
241 208 167 241 208 167 240 207 166 238 206 165 236 204 163 
235 202 161 234 200 162 232 198 160 229 195 157 228 194 157 
225 192 155 221 189 151 217 184 149 216 183 148 215 182 147 
215 182 147 215 182 146 215 180 146 214 181 146 215 181 146 
215 181 146 215 181 146 214 180 145 215 181 146 214 180 145 
215 181 146 214 180 145 215 181 146 214 180 145 214 180 145 
215 181 146 213 180 145 214 181 146 214 181 146 213 180 145 
214 181 146 214 181 146 214 181 146 214 181 148 214 181 148 
214 181 148 214 181 148 214 181 148 214 181 148 214 181 148 
214 181 148 214 181 148 214 181 148 214 181 146 213 180 145 
213 180 145 213 180 145 213 180 145 213 180 145 214 181 146 
213 180 145 213 181 143 213 181 143 214 182 144 214 182 144 
214 182 144 215 181 144 215 181 143 216 182 144 216 182 144 
244 207 143 246 207 146 245 207 148 245 208 151 246 209 152 
246 211 155 248 212 162 248 214 168 248 215 172 246 213 172 
245 212 171 244 211 170 244 211 170 243 210 169 241 208 167 
240 207 166 239 206 165 236 204 163 236 202 164 234 201 160 
232 198 160 229 195 157 225 191 155 222 188 151 219 186 151 
217 183 148 217 183 148 215 181 146 216 182 147 215 181 146 
213 181 145 214 181 146 215 181 146 215 181 146 215 181 146 
214 180 145 214 180 145 214 180 145 215 181 146 214 180 145 
215 181 146 215 181 146 215 181 146 215 181 146 214 180 145 
214 181 146 214 181 146 214 181 146 214 181 146 214 181 148 
213 180 147 214 181 148 214 181 148 214 181 148 214 181 148 
214 181 148 214 181 148 214 181 148 214 181 148 214 181 148 
214 181 148 214 181 148 214 181 146 214 181 146 214 181 146 
214 181 146 214 181 146 214 181 146 214 181 146 214 181 146 
214 181 146 214 181 146 214 182 144 214 182 144 214 182 144 
214 182 144 214 182 144 215 181 144 216 182 144 216 182 144 
245 209 151 246 209 153 245 210 156 248 212 161 248 215 166 
249 216 172 247 214 173 246 213 172 245 212 171 244 211 170 
243 210 169 242 209 168 242 209 168 241 208 167 240 207 166 
236 203 162 234 200 162 231 197 159 228 194 156 225 191 154 
222 188 151 220 186 149 218 184 147 218 184 147 217 183 148 
216 182 147 216 182 147 215 181 146 215 181 146 214 180 145 
213 180 145 214 181 146 214 181 146 215 181 146 214 180 145 
215 181 146 215 181 146 215 181 146 214 180 145 215 181 146 
214 180 145 215 181 146 215 181 146 214 180 145 214 180 145 
214 180 145 215 181 146 213 180 145 214 181 146 214 181 148 
214 181 148 213 180 147 214 181 148 214 181 148 214 181 148 
214 181 148 214 181 146 214 181 146 214 181 148 214 181 148 
214 181 148 214 181 146 214 181 146 214 181 148 214 181 146 
214 181 146 214 181 146 214 181 146 214 181 146 214 181 146 
214 181 146 214 181 146 214 181 146 214 181 146 214 182 144 
214 181 146 214 182 144 215 183 145 215 182 145 216 182 147 
246 211 161 247 213 165 249 216 169 249 216 173 248 215 174 
246 213 174 244 210 172 243 210 169 242 209 168 242 209 168 
242 208 170 242 208 170 239 206 165 236 203 162 233 199 161 
229 195 157 227 193 156 224 190 153 222 188 153 220 186 151 
218 184 149 217 183 148 217 183 146 217 182 148 216 182 147 
215 181 146 215 181 146 214 180 145 214 180 145 214 180 147 
215 180 146 214 181 148 214 181 146 214 179 147 214 179 147 
214 180 145 215 181 146 215 181 146 215 181 146 214 180 145 
215 181 146 215 181 146 215 181 146 214 179 147 214 180 145 
213 180 147 215 180 148 214 181 148 214 181 148 214 181 148 
214 181 148 214 181 148 214 181 148 214 181 148 214 181 148 
214 181 148 213 180 147 214 181 148 214 181 148 214 181 148 
214 181 148 214 181 148 214 181 148 214 181 148 215 182 149 
214 181 146 215 182 147 214 181 146 214 181 146 214 181 146 
215 182 147 215 182 147 215 182 147 214 181 146 215 182 147 
215 182 147 215 182 147 215 182 147 215 182 147 215 182 147 
