P3
# Created by IrfanView
20 7
255
64 70 86 64 70 86 64 70 86 65 70 84 64 70 84 
67 72 85 65 69 86 64 69 87 66 70 81 69 75 82 
105 106 85 66 72 81 93 99 84 82 85 76 64 69 85 
64 70 86 64 70 86 64 70 86 64 70 86 64 70 86 
64 70 86 64 70 86 64 70 85 96 100 87 115 118 87 
93 104 73 100 109 74 71 91 50 124 131 77 88 104 54 
90 111 45 101 111 66 144 148 91 115 119 72 80 85 83 
64 70 86 63 70 85 64 70 85 64 70 86 64 70 86 
64 70 86 70 75 82 76 81 80 83 93 65 155 163 83 
108 136 47 136 152 71 107 134 43 131 145 62 171 173 100 
99 127 41 119 144 55 135 149 70 157 165 93 104 124 47 
81 98 58 124 128 87 80 83 81 64 70 85 64 70 86 
68 74 85 90 95 81 103 128 48 151 158 84 115 144 50 
100 134 35 97 131 34 99 134 33 108 139 46 118 144 50 
109 143 39 106 143 38 106 141 39 128 148 60 98 131 35 
111 140 46 125 141 63 86 97 67 89 94 85 63 70 85 
65 70 84 105 122 63 107 141 39 114 143 49 98 130 36 
99 134 36 122 153 48 105 138 41 84 122 31 88 124 30 
92 127 32 91 127 32 89 124 31 94 129 36 110 147 40 
93 128 32 95 131 35 136 152 73 90 94 88 63 70 87 
64 69 86 57 73 53 73 98 40 78 106 37 85 119 31 
102 135 45 155 159 75 194 201 92 168 193 79 93 127 35 
89 124 32 88 124 31 105 140 43 169 192 78 146 142 64 
104 133 45 80 108 36 63 86 38 62 70 81 64 69 86 
64 70 85 63 69 86 64 70 87 60 70 78 61 76 61 
60 76 63 67 87 61 76 96 60 70 85 62 60 74 62 
64 82 54 63 80 57 72 86 66 102 120 69 82 99 59 
62 79 55 60 71 75 63 70 84 64 70 86 64 70 86 
