P3
# Created by IrfanView
15 12
255
0 0 0 0 0 0 0 0 0 0 0 0 1 0 0 
0 0 0 0 0 0 13 10 9 20 15 14 5 4 3 
0 0 0 0 0 0 0 0 0 0 0 0 0 0 0 
0 0 0 0 0 0 0 0 0 0 0 0 0 1 2 
5 6 9 20 17 18 54 36 28 58 36 26 14 10 7 
0 0 0 1 1 0 1 1 1 1 1 1 0 0 0 
0 0 0 1 0 0 0 0 0 0 0 0 9 11 8 
44 36 28 98 69 50 153 97 56 133 81 40 35 23 14 
0 0 1 1 1 0 2 2 2 2 2 2 0 0 0 
0 0 0 3 2 1 0 0 0 0 0 0 34 30 19 
109 80 49 189 123 67 244 149 66 193 117 45 54 35 19 
1 0 4 2 1 0 1 0 0 1 0 0 0 0 0 
0 0 0 4 3 2 0 0 0 0 0 0 63 52 33 
159 115 66 225 141 66 255 158 62 215 125 49 60 39 24 
0 0 6 2 0 0 0 0 0 1 0 0 0 0 0 
0 0 0 4 3 2 0 0 0 0 0 0 76 65 44 
175 128 72 223 135 49 252 144 43 215 122 46 73 52 32 
3 7 12 2 0 0 0 0 0 1 1 1 0 0 0 
0 0 0 4 4 2 0 0 0 0 0 0 74 68 51 
174 135 77 230 142 41 255 150 28 222 137 41 108 85 45 
24 29 24 0 0 0 0 0 0 3 2 1 0 0 0 
0 0 0 5 5 3 0 0 0 0 0 0 91 84 62 
196 165 107 235 170 79 251 165 38 229 155 31 160 124 53 
63 57 35 0 0 0 0 0 0 4 3 2 0 0 0 
0 0 0 5 5 3 0 0 0 0 0 0 104 94 65 
219 195 130 250 215 126 255 210 83 244 189 57 184 145 64 
79 64 38 0 0 0 0 0 0 4 3 2 0 0 0 
0 0 0 2 1 0 0 0 0 0 0 0 81 76 50 
198 185 110 255 249 130 255 255 138 255 234 123 153 135 82 
47 42 30 0 0 0 0 0 0 1 1 1 0 0 0 
7 7 7 10 9 9 6 6 6 2 2 2 31 31 19 
95 91 50 165 157 83 179 184 108 153 146 96 65 64 49 
10 12 12 0 0 0 2 2 2 5 5 5 6 6 6 
17 17 17 20 20 20 16 16 16 6 6 6 0 0 0 
11 11 9 54 53 43 61 61 50 33 33 27 6 6 5 
0 0 0 1 1 1 4 4 4 11 11 11 15 15 15 
