P3
# Created by IrfanView
10 10
255
3 3 3 28 6 15 122 38 72 124 38 73 29 5 14 
31 5 16 126 39 74 121 35 70 25 4 13 0 0 0 
27 9 16 214 135 167 254 176 207 254 173 206 214 94 143 
217 97 146 254 174 206 254 173 205 202 85 132 20 3 10 
106 26 58 253 154 194 254 152 193 254 151 192 254 150 191 
254 149 191 254 148 190 254 148 190 253 145 189 99 21 52 
124 32 69 253 122 175 253 122 175 253 122 175 253 122 175 
253 122 175 253 122 175 253 122 175 253 122 175 116 28 64 
71 12 36 250 82 149 253 94 158 253 96 159 253 96 159 
253 96 159 253 96 159 253 94 158 249 80 148 65 11 33 
9 1 5 194 37 100 253 44 128 253 47 129 253 50 131 
253 50 131 253 47 129 253 45 128 189 36 97 8 1 4 
0 0 0 53 9 27 235 51 124 253 43 127 253 43 127 
253 43 127 253 43 127 232 50 123 49 8 24 0 0 0 
0 0 0 1 0 0 87 16 44 242 57 131 253 48 130 
253 55 134 241 60 132 82 15 42 0 0 0 0 0 0 
0 0 0 0 0 0 1 0 1 91 18 47 239 66 135 
241 128 173 90 26 52 1 0 0 0 0 0 0 0 0 
0 0 0 0 0 0 0 0 0 1 0 0 60 14 33 
58 14 31 2 1 1 0 0 0 0 0 0 0 0 0 
